<svg width="58" height="46" viewBox="0 0 58 46" fill="none" xmlns="http://www.w3.org/2000/svg">
<path d="M49.8571 22.9613C49.3837 22.4879 48.6163 22.4879 48.1429 22.9613L40.429 30.6752C39.9556 31.1485 39.9556 31.916 40.429 32.3894C40.9024 32.8627 41.6698 32.8627 42.1432 32.3894L49 25.5326L55.8568 32.3894C56.3302 32.8627 57.0976 32.8627 57.571 32.3894C58.0444 31.916 58.0444 31.1485 57.571 30.6752L49.8571 22.9613ZM44.0521 37.2554L43.1303 36.4683V36.4683L44.0521 37.2554ZM17.6717 41.2744L18.3192 40.2497L17.6717 41.2744ZM10.1586 29.5562C9.96196 28.9163 9.28379 28.557 8.64389 28.7537C8.004 28.9503 7.6447 29.6285 7.84137 30.2684L10.1586 29.5562ZM47.7879 23.8184C47.7879 28.4618 46.1347 32.95 43.1303 36.4683L44.9739 38.0425C48.3543 34.0839 50.2121 29.037 50.2121 23.8184H47.7879ZM43.1303 36.4683C40.1262 39.9863 35.9707 42.3009 31.4193 42.9943L31.7844 45.3909C36.914 44.6095 41.5934 42.0013 44.9739 38.0425L43.1303 36.4683ZM31.4193 42.9943C26.868 43.6877 22.2201 42.7144 18.3192 40.2497L17.0243 42.2991C21.4177 45.075 26.6548 46.1724 31.7844 45.3909L31.4193 42.9943ZM18.3192 40.2497C14.418 37.7849 11.5218 33.9913 10.1586 29.5562L7.84137 30.2684C9.37379 35.2543 12.6311 39.5234 17.0243 42.2991L18.3192 40.2497Z" fill="#2B52DB"/>
<path d="M8.1429 23.4631C8.61626 23.9364 9.38374 23.9364 9.8571 23.4631L17.571 15.7492C18.0443 15.2758 18.0443 14.5083 17.571 14.035C17.0976 13.5616 16.3301 13.5616 15.8568 14.035L9 20.8918L2.1432 14.035C1.66984 13.5616 0.902362 13.5616 0.429 14.035C-0.0443618 14.5083 -0.0443618 15.2758 0.429004 15.7492L8.1429 23.4631ZM13.9479 9.16892L14.8697 9.95605L14.8697 9.95605L13.9479 9.16892ZM26.3981 2.23167L26.5807 3.42997L26.3981 2.23167ZM40.3283 5.14991L39.6808 6.17463L39.6808 6.17463L40.3283 5.14991ZM47.8414 16.8681C48.038 17.508 48.7162 17.8673 49.3561 17.6706C49.996 17.474 50.3553 16.7958 50.1586 16.1559L47.8414 16.8681ZM10.2121 22.606C10.2121 17.9625 11.8653 13.4743 14.8697 9.95605L13.0261 8.3818C9.64574 12.3404 7.78788 17.3873 7.78788 22.606L10.2121 22.606ZM14.8697 9.95605C17.8738 6.43802 22.0293 4.12337 26.5807 3.42997L26.2156 1.03338C21.086 1.81485 16.4066 4.42298 13.0261 8.3818L14.8697 9.95605ZM26.5807 3.42997C31.132 2.73658 35.7799 3.70994 39.6808 6.17463L40.9757 4.12518C36.5823 1.34935 31.3452 0.251888 26.2156 1.03338L26.5807 3.42997ZM39.6808 6.17463C43.582 8.63945 46.4782 12.433 47.8414 16.8681L50.1586 16.1559C48.6262 11.17 45.3689 6.90088 40.9757 4.12518L39.6808 6.17463Z" fill="#2B52DB"/>
<circle cx="29" cy="24" r="5" fill="#2B52DB"/>
</svg>
