<svg width="44" height="44" viewBox="0 0 44 44" fill="none" xmlns="http://www.w3.org/2000/svg">
<path d="M30.6515 36.212L29.4782 26.818C29.3119 25.4874 28.6652 24.2634 27.6598 23.3761C26.6544 22.4889 25.3594 21.9995 24.0185 22H19.9778C18.6375 22.0004 17.3435 22.4902 16.3388 23.3773C15.3341 24.2645 14.688 25.488 14.5218 26.818L13.3467 36.212C13.2822 36.7281 13.3282 37.252 13.4817 37.749C13.6353 38.2459 13.8928 38.7045 14.2371 39.0943C14.5815 39.4841 15.0048 39.7962 15.4791 40.0098C15.9533 40.2234 16.4675 40.3337 16.9877 40.3333H27.0123C27.5323 40.3334 28.0463 40.223 28.5203 40.0092C28.9943 39.7955 29.4175 39.4834 29.7616 39.0936C30.1058 38.7039 30.3631 38.2454 30.5165 37.7485C30.67 37.2517 30.716 36.728 30.6515 36.212V36.212Z" stroke="#2B52DB" stroke-width="2.66667" stroke-linecap="round" stroke-linejoin="round"/>
<path d="M22.0005 14.6665C25.0381 14.6665 27.5005 12.2041 27.5005 9.1665C27.5005 6.12894 25.0381 3.6665 22.0005 3.6665C18.9629 3.6665 16.5005 6.12894 16.5005 9.1665C16.5005 12.2041 18.9629 14.6665 22.0005 14.6665Z" stroke="#2B52DB" stroke-width="2.66667"/>
<path d="M7.3339 20.1663C9.35895 20.1663 11.0006 18.5247 11.0006 16.4997C11.0006 14.4746 9.35895 12.833 7.3339 12.833C5.30886 12.833 3.66724 14.4746 3.66724 16.4997C3.66724 18.5247 5.30886 20.1663 7.3339 20.1663Z" stroke="#2B52DB" stroke-width="2.66667"/>
<path d="M36.6672 20.1663C38.6922 20.1663 40.3338 18.5247 40.3338 16.4997C40.3338 14.4746 38.6922 12.833 36.6672 12.833C34.6421 12.833 33.0005 14.4746 33.0005 16.4997C33.0005 18.5247 34.6421 20.1663 36.6672 20.1663Z" stroke="#2B52DB" stroke-width="2.66667"/>
<path d="M36.6673 25.6665H37.2283C38.0963 25.6664 38.9361 25.9742 39.5985 26.5352C40.2608 27.0961 40.7027 27.8739 40.8455 28.73L41.456 32.3967C41.5436 32.922 41.5157 33.4601 41.3743 33.9736C41.2328 34.487 40.9812 34.9635 40.637 35.3699C40.2927 35.7763 39.8641 36.1028 39.3808 36.3267C38.8976 36.5506 38.3714 36.6666 37.8388 36.6665H31.1673M7.33398 25.6665H6.77298C5.90501 25.6664 5.06514 25.9742 4.4028 26.5352C3.74046 27.0961 3.29859 27.8739 3.15581 28.73L2.54531 32.3967C2.4577 32.922 2.48558 33.4601 2.62702 33.9736C2.76846 34.487 3.02006 34.9635 3.36431 35.3699C3.70857 35.7763 4.13722 36.1028 4.62045 36.3267C5.10368 36.5506 5.62989 36.6666 6.16248 36.6665H12.834L7.33398 25.6665Z" stroke="#2B52DB" stroke-width="2.66667" stroke-linecap="round" stroke-linejoin="round"/>
</svg>
