<svg width="49" height="48" viewBox="0 0 49 48" fill="none" xmlns="http://www.w3.org/2000/svg">
<path fill-rule="evenodd" clip-rule="evenodd" d="M26.668 1.77778C26.668 0.795939 27.4639 0 28.4457 0H30.2235C31.2054 0 32.0013 0.795938 32.0013 1.77778V3.55555C32.0013 3.63417 31.9962 3.7116 31.9863 3.78752C34.1845 4.17666 36.2186 5.04101 37.9786 6.27062C38.0253 6.20987 38.0765 6.15144 38.1322 6.09578L39.3893 4.83871C40.0835 4.14444 41.2091 4.14444 41.9034 4.83871L43.1605 6.09578C43.8548 6.79005 43.8548 7.91568 43.1605 8.60994L41.9034 9.86702C41.8479 9.92256 41.7896 9.97366 41.7289 10.0203C42.9594 11.7809 43.8243 13.8158 44.2136 16.0149C44.2896 16.005 44.3671 15.9999 44.4457 15.9999H46.2235C47.2054 15.9999 48.0013 16.7958 48.0013 17.7777V19.5555C48.0013 20.5373 47.2054 21.3332 46.2235 21.3332H44.4457C44.3671 21.3332 44.2896 21.3281 44.2136 21.3182C43.8244 23.517 42.9598 25.5517 41.7297 27.3121C41.7902 27.3586 41.8484 27.4097 41.9038 27.4651L43.1609 28.7222C43.8552 29.4165 43.8552 30.5421 43.1609 31.2363L41.9038 32.4934C41.2095 33.1877 40.0839 33.1877 39.3897 32.4934L38.1326 31.2363C38.0771 31.1809 38.0261 31.1227 37.9795 31.0622C36.2193 32.2921 34.1849 33.1567 31.9863 33.5459C31.9962 33.6218 32.0013 33.6992 32.0013 33.7778V35.5556C32.0013 36.5374 31.2054 37.3333 30.2235 37.3333H28.4457C27.4639 37.3333 26.668 36.5374 26.668 35.5556V33.7778C26.668 33.6992 26.6731 33.6218 26.6829 33.546C24.4843 33.1568 22.4498 32.2923 20.6895 31.0623C20.6426 31.1232 20.5913 31.1818 20.5355 31.2376L19.2784 32.4947C18.5841 33.189 17.4585 33.189 16.7643 32.4947L15.5072 31.2376C14.8129 30.5434 14.8129 29.4178 15.5072 28.7235L16.7643 27.4664C16.82 27.4107 16.8786 27.3594 16.9394 27.3126C15.7091 25.5521 14.8444 23.5173 14.4551 21.3183C14.3793 21.3281 14.302 21.3332 14.2235 21.3332H12.4457C11.4639 21.3332 10.668 20.5373 10.668 19.5555V17.7777C10.668 16.7958 11.4639 15.9999 12.4457 15.9999H14.2235C14.302 15.9999 14.3794 16.005 14.4552 16.0149C14.8444 13.8163 15.709 11.7818 16.9389 10.0216C16.8784 9.97495 16.8201 9.92391 16.7647 9.86842L15.5076 8.61135C14.8133 7.91708 14.8133 6.79145 15.5076 6.09719L16.7647 4.84011C17.4589 4.14585 18.5845 4.14584 19.2788 4.84011L20.5359 6.09719C20.5914 6.15266 20.6424 6.21088 20.689 6.27142C22.4494 5.04128 24.4841 4.1766 26.683 3.78743C26.6731 3.71154 26.668 3.63414 26.668 3.55556V1.77778ZM29.3344 30.2223C35.7163 30.2223 40.8899 25.0487 40.8899 18.6667C40.8899 12.2847 35.7163 7.11114 29.3344 7.11114C22.9524 7.11114 17.7788 12.2847 17.7788 18.6667C17.7788 25.0487 22.9524 30.2223 29.3344 30.2223Z" fill="#2B52DB"/>
<path fill-rule="evenodd" clip-rule="evenodd" d="M7.11058 30.2221C7.11058 29.2403 7.90652 28.4443 8.88836 28.4443H10.6661C11.648 28.4443 12.4439 29.2403 12.4439 30.2221V31.9999C12.4439 32.1945 12.4126 32.3819 12.3548 32.5571C13.7196 33.179 14.8203 34.2796 15.4423 35.6443C15.6174 35.5866 15.8045 35.5554 15.9989 35.5554H17.7767C18.7585 35.5554 19.5545 36.3514 19.5545 37.3332V39.111C19.5545 40.0928 18.7585 40.8887 17.7767 40.8887H15.9989C15.8045 40.8887 15.6174 40.8575 15.4423 40.7999C14.8203 42.1646 13.7196 43.2653 12.3548 43.8872C12.4126 44.0625 12.4439 44.2498 12.4439 44.4445V46.2222C12.4439 47.2041 11.648 48 10.6661 48H8.88836C7.90652 48 7.11058 47.2041 7.11058 46.2222V44.4445C7.11058 44.2497 7.14189 44.0623 7.19975 43.887C5.8351 43.265 4.73455 42.1644 4.11261 40.7997C3.93739 40.8575 3.75012 40.8887 3.55556 40.8887H1.77778C0.795939 40.8887 0 40.0928 0 39.111V37.3332C0 36.3514 0.795938 35.5554 1.77778 35.5554H3.55555C3.75014 35.5554 3.93743 35.5867 4.11266 35.6445C4.73461 34.2798 5.83513 33.1793 7.19973 32.5573C7.14188 32.382 7.11058 32.1946 7.11058 31.9999V30.2221ZM9.77751 40.8888C11.2503 40.8888 12.4442 39.6949 12.4442 38.2221C12.4442 36.7494 11.2503 35.5555 9.77751 35.5555C8.30475 35.5555 7.11084 36.7494 7.11084 38.2221C7.11084 39.6949 8.30475 40.8888 9.77751 40.8888Z" fill="#2B52DB"/>
</svg>
