<svg width="36" height="37" viewBox="0 0 36 37" fill="none" xmlns="http://www.w3.org/2000/svg">
<g clip-path="url(#clip0_263_249)">
<path d="M35.2834 18.4059C35.2834 23.0847 33.4247 27.572 30.1163 30.8804C26.8078 34.1889 22.3206 36.0476 17.6417 36.0476C12.9628 36.0476 8.4756 34.1889 5.16714 30.8804C1.85868 27.572 0 23.0847 0 18.4059C0 13.727 1.85868 9.23976 5.16714 5.9313C8.4756 2.62284 12.9628 0.76416 17.6417 0.76416C22.3206 0.76416 26.8078 2.62284 30.1163 5.9313C33.4247 9.23976 35.2834 13.727 35.2834 18.4059ZM18.2746 13.7882C16.559 14.5026 13.1276 15.9801 7.98508 18.2206C7.15151 18.5514 6.71267 18.8778 6.67298 19.1953C6.60682 19.7312 7.27941 19.9429 8.19457 20.2318L8.58049 20.3531C9.48021 20.6464 10.6931 20.9882 11.3216 21.0014C11.8949 21.0146 12.5322 20.7809 13.2357 20.2957C18.0409 17.0519 20.5217 15.4134 20.6761 15.3781C20.7863 15.3516 20.9407 15.3208 21.0421 15.4134C21.1458 15.5038 21.1348 15.678 21.1237 15.7243C21.0576 16.0088 18.4179 18.461 17.0529 19.7312C16.6273 20.1281 16.3252 20.4082 16.2635 20.4722C16.1275 20.6111 15.9893 20.7479 15.8489 20.8823C15.0109 21.6894 14.3846 22.2937 15.882 23.2816C16.6031 23.7579 17.1808 24.1482 17.7564 24.5408C18.3827 24.9686 19.0089 25.3942 19.8205 25.9279C20.0255 26.0602 20.224 26.2035 20.4159 26.3402C21.1458 26.8607 21.8052 27.3282 22.6145 27.2532C23.0864 27.2091 23.5737 26.768 23.8207 25.4449C24.4051 22.3201 25.554 15.5523 25.8186 12.7627C25.8348 12.5308 25.8252 12.2979 25.79 12.0681C25.7692 11.8827 25.6795 11.7119 25.5386 11.5896C25.3379 11.451 25.0987 11.3793 24.855 11.3845C24.1934 11.3955 23.1724 11.7505 18.2746 13.7882Z" fill="#272727"/>
</g>
<defs>
<clipPath id="clip0_263_249">
<rect width="35.2834" height="35.2834" fill="white" transform="translate(0 0.76416)"/>
</clipPath>
</defs>
</svg>
