<svg width="54" height="54" viewBox="0 0 54 54" fill="none" xmlns="http://www.w3.org/2000/svg">
<path d="M36.794 25.5452C36.9989 25.333 37.1123 25.0489 37.1098 24.7539C37.1072 24.4589 36.9889 24.1768 36.7803 23.9682C36.5717 23.7596 36.2896 23.6413 35.9946 23.6387C35.6996 23.6362 35.4154 23.7495 35.2033 23.9545L26.9986 32.1591L23.294 28.4545C23.0818 28.2495 22.7976 28.1362 22.5027 28.1387C22.2077 28.1413 21.9255 28.2596 21.717 28.4682C21.5084 28.6768 21.3901 28.9589 21.3875 29.2539C21.3849 29.5489 21.4983 29.833 21.7033 30.0452L26.9986 35.3406L36.794 25.5452Z" fill="#2B52DB"/>
<path fill-rule="evenodd" clip-rule="evenodd" d="M42.7483 16.875V40.5C42.7483 41.3951 42.3927 42.2535 41.7598 42.8865C41.1268 43.5194 40.2684 43.875 39.3733 43.875H19.1233C18.2282 43.875 17.3697 43.5194 16.7368 42.8865C16.1039 42.2535 15.7483 41.3951 15.7483 40.5V9C15.7483 8.10489 16.1039 7.24645 16.7368 6.61351C17.3697 5.98058 18.2282 5.625 19.1233 5.625H31.4983L42.7483 16.875ZM31.4983 18C31.1999 18 30.9138 17.8815 30.7028 17.6705C30.4918 17.4595 30.3733 17.1734 30.3733 16.875V7.875H19.1233C18.8249 7.875 18.5388 7.99353 18.3278 8.2045C18.1168 8.41548 17.9983 8.70163 17.9983 9V40.5C17.9983 40.7984 18.1168 41.0845 18.3278 41.2955C18.5388 41.5065 18.8249 41.625 19.1233 41.625H39.3733C39.6717 41.625 39.9578 41.5065 40.1688 41.2955C40.3798 41.0845 40.4983 40.7984 40.4983 40.5V18H31.4983ZM32.6233 9.9315L38.4418 15.75H32.6233V9.9315Z" fill="#2B52DB"/>
<path d="M13.4988 12.375V42.75C13.4988 43.6451 13.8544 44.5035 14.4873 45.1365C15.1202 45.7694 15.9787 46.125 16.8738 46.125H38.2488V48.375H16.8738C15.3819 48.375 13.9512 47.7824 12.8963 46.7275C11.8414 45.6726 11.2488 44.2418 11.2488 42.75V12.375H13.4988Z" fill="#2B52DB"/>
</svg>
