<svg width="22" height="16" viewBox="0 0 22 16" fill="none" xmlns="http://www.w3.org/2000/svg">
<path d="M8.0565 15.1851L1.37213 8.53824C1.33358 8.49991 1.30299 8.45433 1.28211 8.40413C1.26123 8.35394 1.25049 8.30011 1.25049 8.24574C1.25049 8.19138 1.26123 8.13755 1.28211 8.08735C1.30299 8.03715 1.33358 7.99158 1.37213 7.95324L3.05963 6.26387C3.22088 6.10262 3.4815 6.10262 3.64275 6.26387L8.04338 10.6382C8.20463 10.7995 8.46713 10.7976 8.62838 10.6364L18.3521 0.818868C18.5134 0.655743 18.7759 0.655743 18.939 0.816993L20.6284 2.50637C20.7896 2.66762 20.7896 2.92824 20.6303 3.08949L10.0365 13.7789L10.0384 13.7807L8.6415 15.1851C8.48025 15.3464 8.21775 15.3464 8.0565 15.1851Z" fill="#2B52DB" stroke="#2B52DB" stroke-width="1.125" stroke-miterlimit="10"/>
</svg>
