<svg width="36" height="36" viewBox="0 0 36 36" fill="none" xmlns="http://www.w3.org/2000/svg">
<g clip-path="url(#clip0_263_245)">
<path fill-rule="evenodd" clip-rule="evenodd" d="M0.477295 17.7402C0.477295 26.5111 6.84742 33.8045 15.1787 35.2834V22.5417H10.7683V17.6417H15.1787V13.7208C15.1787 9.31041 18.0205 6.86115 22.0399 6.86115C23.313 6.86115 24.6861 7.05668 25.9593 7.25221V11.7611H23.7055C21.5488 11.7611 21.0593 12.8388 21.0593 14.2119V17.6417H25.7637L24.9802 22.5417H21.0593V35.2834C29.3906 33.8045 35.7607 26.5126 35.7607 17.7402C35.7607 7.98287 27.8219 0 18.119 0C8.41606 0 0.477295 7.98287 0.477295 17.7402Z" fill="#272727"/>
</g>
<defs>
<clipPath id="clip0_263_245">
<rect width="35.2834" height="35.2834" fill="white" transform="translate(0.476562)"/>
</clipPath>
</defs>
</svg>
