<svg width="36" height="36" viewBox="0 0 36 36" fill="none" xmlns="http://www.w3.org/2000/svg">
<path fill-rule="evenodd" clip-rule="evenodd" d="M11.6912 1.56724C13.4157 1.48786 13.9655 1.47021 18.3583 1.47021C22.7511 1.47021 23.301 1.48933 25.024 1.56724C26.747 1.64516 27.9231 1.92008 28.9522 2.31849C30.0298 2.72572 31.0074 3.36229 31.816 4.18557C32.6393 4.99268 33.2744 5.96885 33.6802 7.04794C34.08 8.07704 34.3535 9.25315 34.4329 10.9732C34.5123 12.7006 34.5299 13.2505 34.5299 17.6418C34.5299 22.0346 34.5108 22.5844 34.4329 24.3089C34.355 26.0289 34.08 27.2051 33.6802 28.2342C33.2744 29.3134 32.6382 30.2912 31.816 31.0995C31.0074 31.9227 30.0298 32.5578 28.9522 32.9636C27.9231 33.3635 26.747 33.6369 25.0269 33.7163C23.301 33.7957 22.7511 33.8134 18.3583 33.8134C13.9655 33.8134 13.4157 33.7942 11.6912 33.7163C9.97117 33.6384 8.79506 33.3635 7.76596 32.9636C6.68676 32.5578 5.70896 31.9216 4.90065 31.0995C4.07793 30.2919 3.44126 29.3145 3.03504 28.2356C2.63663 27.2065 2.36318 26.0304 2.2838 24.3103C2.20441 22.5829 2.18677 22.0331 2.18677 17.6418C2.18677 13.249 2.20588 12.6992 2.2838 10.9762C2.36171 9.25315 2.63663 8.07704 3.03504 7.04794C3.44186 5.96897 4.07902 4.99167 4.90212 4.1841C5.70929 3.36155 6.6861 2.7249 7.76449 2.31849C8.79359 1.92008 9.9697 1.64663 11.6898 1.56724H11.6912ZM24.8931 4.47813C23.1878 4.40021 22.6761 4.38404 18.3583 4.38404C14.0405 4.38404 13.5289 4.40021 11.8236 4.47813C10.2461 4.55016 9.39047 4.81332 8.82005 5.03531C8.06587 5.32934 7.52633 5.67776 6.96032 6.24377C6.42378 6.76574 6.01087 7.40118 5.75186 8.1035C5.52987 8.67391 5.26672 9.52954 5.19468 11.107C5.11676 12.8124 5.10059 13.324 5.10059 17.6418C5.10059 21.9596 5.11676 22.4712 5.19468 24.1766C5.26672 25.754 5.52987 26.6097 5.75186 27.1801C6.01061 27.8813 6.42372 28.5179 6.96032 29.0398C7.48222 29.5764 8.11879 29.9895 8.82005 30.2483C9.39047 30.4702 10.2461 30.7334 11.8236 30.8054C13.5289 30.8834 14.0391 30.8995 18.3583 30.8995C22.6776 30.8995 23.1878 30.8834 24.8931 30.8054C26.4706 30.7334 27.3262 30.4702 27.8966 30.2483C28.6508 29.9542 29.1903 29.6058 29.7563 29.0398C30.293 28.5179 30.7061 27.8813 30.9648 27.1801C31.1868 26.6097 31.45 25.754 31.522 24.1766C31.5999 22.4712 31.6161 21.9596 31.6161 17.6418C31.6161 13.324 31.5999 12.8124 31.522 11.107C31.45 9.52954 31.1868 8.67391 30.9648 8.1035C30.6708 7.34931 30.3224 6.80977 29.7563 6.24377C29.2343 5.70727 28.5989 5.29437 27.8966 5.03531C27.3262 4.81332 26.4706 4.55016 24.8931 4.47813ZM16.2928 22.627C17.4463 23.1072 18.7308 23.172 19.9269 22.8104C21.1229 22.4487 22.1563 21.6831 22.8505 20.6442C23.5447 19.6053 23.8567 18.3576 23.7332 17.1142C23.6097 15.8708 23.0584 14.7088 22.1734 13.8268C21.6092 13.2629 20.927 12.8312 20.1759 12.5627C19.4249 12.2941 18.6236 12.1954 17.8298 12.2737C17.036 12.352 16.2695 12.6053 15.5854 13.0154C14.9012 13.4255 14.3165 13.9822 13.8734 14.6454C13.4302 15.3086 13.1396 16.0618 13.0225 16.8508C12.9053 17.6398 12.9646 18.4449 13.196 19.2082C13.4274 19.9716 13.8251 20.6741 14.3606 21.2653C14.8961 21.8564 15.556 22.3215 16.2928 22.627ZM12.4807 11.7642C13.2526 10.9923 14.1689 10.38 15.1774 9.96229C16.1859 9.54456 17.2668 9.32956 18.3583 9.32956C19.4499 9.32956 20.5308 9.54456 21.5393 9.96229C22.5478 10.38 23.4641 10.9923 24.236 11.7642C25.0078 12.536 25.6201 13.4523 26.0378 14.4608C26.4556 15.4693 26.6706 16.5502 26.6706 17.6418C26.6706 18.7334 26.4556 19.8142 26.0378 20.8227C25.6201 21.8312 25.0078 22.7476 24.236 23.5194C22.6771 25.0783 20.5629 25.954 18.3583 25.954C16.1538 25.954 14.0395 25.0783 12.4807 23.5194C10.9219 21.9606 10.0461 19.8463 10.0461 17.6418C10.0461 15.4372 10.9219 13.323 12.4807 11.7642ZM28.5141 10.5675C28.7054 10.387 28.8585 10.17 28.9644 9.92938C29.0703 9.6887 29.1269 9.42923 29.1307 9.16631C29.1345 8.90339 29.0856 8.64237 28.9867 8.39872C28.8879 8.15506 28.7411 7.93371 28.5552 7.74778C28.3693 7.56185 28.1479 7.41511 27.9043 7.31626C27.6606 7.21741 27.3996 7.16845 27.1367 7.17228C26.8737 7.17612 26.6143 7.23266 26.3736 7.33858C26.1329 7.44449 25.9159 7.59761 25.7355 7.78889C25.3846 8.16088 25.1925 8.65498 25.1999 9.16631C25.2074 9.67764 25.4138 10.1659 25.7754 10.5275C26.137 10.8891 26.6253 11.0956 27.1367 11.103C27.648 11.1105 28.1421 10.9184 28.5141 10.5675Z" fill="#272727"/>
</svg>
